<svg xmlns="http://www.w3.org/2000/svg" viewBox="0 0 87.53 76.24"><defs><style>.cls-1{fill:#e30613;}.cls-2{fill:#333;}</style></defs><g id="Layer_2" data-name="Layer 2"><g id="Layer_4" data-name="Layer 4"><path class="cls-1" d="M25.8,52.78a1.25,1.25,0,0,1-1.25-1.25V28.81a1.25,1.25,0,0,1,2.5,0V51.53A1.25,1.25,0,0,1,25.8,52.78Z"/><path class="cls-1" d="M25.8,39.3a1.14,1.14,0,0,1-.41-.07L11.28,34.3a1.27,1.27,0,0,1-.75-.72,1.22,1.22,0,0,1,.05-1l9.92-19a1.23,1.23,0,0,1,.91-.65L35,10.71a1.25,1.25,0,0,1,.4,2.47l-13,2.09-9,17.14,12.74,4.46a1.25,1.25,0,0,1-.41,2.43Z"/><path class="cls-1" d="M43.77,22.61a9.87,9.87,0,0,1-9.86-9.86c0-.31,0-.62,0-.92a1.25,1.25,0,1,1,2.49.23q0,.34,0,.69a7.37,7.37,0,0,0,7.36,7.36,1.25,1.25,0,0,1,0,2.5Z"/><path class="cls-1" d="M61.73,52.78a1.25,1.25,0,0,1-1.25-1.25V28.81a1.25,1.25,0,1,1,2.5,0V51.53A1.25,1.25,0,0,1,61.73,52.78Z"/><path class="cls-1" d="M61.73,39.3a1.25,1.25,0,0,1-.41-2.43l12.75-4.46-9-17.14-13-2.09a1.25,1.25,0,1,1,.4-2.47l13.58,2.2a1.23,1.23,0,0,1,.91.65l9.92,19a1.26,1.26,0,0,1,.06,1,1.3,1.3,0,0,1-.75.72L62.15,39.23A1.23,1.23,0,0,1,61.73,39.3Z"/><path class="cls-1" d="M43.77,22.61a1.25,1.25,0,1,1,0-2.5,7.37,7.37,0,0,0,7.36-7.36c0-.23,0-.46,0-.69a1.25,1.25,0,1,1,2.49-.23c0,.3.05.61.05.92A9.87,9.87,0,0,1,43.77,22.61Z"/><path class="cls-2" d="M82.59,0H4.94A4.94,4.94,0,0,0,0,4.94V57.18a4.94,4.94,0,0,0,4.94,4.94H33.57l-.84,4.24H26.82a1.41,1.41,0,0,0-1.41,1.41v7.06a1.41,1.41,0,0,0,1.41,1.41H60.71a1.41,1.41,0,0,0,1.41-1.41V67.77a1.41,1.41,0,0,0-1.41-1.41h-5.9L54,62.12H82.59a4.94,4.94,0,0,0,4.94-4.94V4.94A4.94,4.94,0,0,0,82.59,0ZM59.3,69.18v4.24H28.24V69.18ZM35.61,66.36l.84-4.24H51.08l.85,4.24Zm49.1-9.18a2.12,2.12,0,0,1-2.12,2.12H4.94a2.12,2.12,0,0,1-2.12-2.12V53.65H84.71Zm0-6.35H2.82V4.94A2.12,2.12,0,0,1,4.94,2.82H82.59a2.12,2.12,0,0,1,2.12,2.12Z"/><path class="cls-2" d="M45.18,55.06H42.36a1.42,1.42,0,1,0,0,2.83h2.82a1.42,1.42,0,0,0,0-2.83Z"/></g></g></svg>