<svg xmlns="http://www.w3.org/2000/svg" viewBox="0 0 81.3 81.8"><defs><style>.cls-1{fill:#333;}.cls-2{fill:#e30613;}</style></defs><g id="Layer_2" data-name="Layer 2"><g id="Layer_4" data-name="Layer 4"><path class="cls-1" d="M76,39.71V21.11a5.28,5.28,0,1,0,0-10.56V0H30.62L18,12.65V18.2L1.41,29.25l1.46,2.19,4.55-3V50.13H18V76.52H52.41a6.62,6.62,0,0,0,6.46,5.28H74.7a6.61,6.61,0,0,0,6.6-6.6v-29A6.61,6.61,0,0,0,76,39.71ZM43,17.65l-3.65-1.82L43,14Zm2.64-4.46H70.75v5.28H45.68Zm33,2.64A2.64,2.64,0,0,1,76,18.47H73.38V13.19H76A2.64,2.64,0,0,1,78.66,15.83ZM29.85,4.5v7.37H22.48ZM10.06,26.65l11.87-7.91,11.88,7.91V47.49H28.53V40.9a6.6,6.6,0,1,0-13.19,0v6.59H10.06ZM25.89,47.49H18V40.9a4,4,0,1,1,7.91,0Zm26.39-1.32V73.88H20.61V50.13H36.45V28.41l4.54,3,1.46-2.19L21.93,15.56l-1.32.88V14.51H32.49V2.64H73.38v7.91H44.05L33.5,15.83l10.55,5.28H73.38V39.58H58.87A6.6,6.6,0,0,0,52.28,46.17Zm26.38,29a4,4,0,0,1-4,4H58.87a4,4,0,0,1-4-4v-29a4,4,0,0,1,4-4H74.7a4,4,0,0,1,4,4Z"/><path class="cls-1" d="M57.55,55.41H76V44.86H57.55Zm2.64-7.92H73.38v5.28H60.19Z"/><path class="cls-1" d="M57.55,73.88a2.65,2.65,0,0,0,2.64,2.64H73.38A2.64,2.64,0,0,0,76,73.88V58.05H57.55Zm2.64-2.64h2.64v2.64H60.19ZM68.11,66V68.6H65.47V66Zm-2.64-2.63V60.69h2.64v2.64ZM70.75,66h2.64V68.6H70.75Zm-2.64,5.28v2.64H65.47V71.24ZM62.83,68.6H60.19V66h2.64Zm7.92,5.28V71.24h2.64v2.64Zm2.63-10.55H70.75V60.69h2.63ZM62.83,60.69v2.64H60.19V60.69Z"/><path class="cls-2" d="M19.29,31.66h5.28A2.64,2.64,0,0,0,27.21,29V26.39a2.64,2.64,0,0,0-2.64-2.64H19.29a2.64,2.64,0,0,0-2.63,2.64V29A2.64,2.64,0,0,0,19.29,31.66Zm0-5.27h5.28V29H19.29Z"/><path class="cls-2" d="M14.84,15.54l-1.65-2.06L7.42,18.1,1.65,13.48,0,15.54l7.42,5.94Z"/><path class="cls-1" d="M6.1,10.55H8.74v2.64H6.1Z"/><path class="cls-1" d="M23.25,52.77H49.64v2.64H23.25Z"/><path class="cls-2" d="M28.53,58.05H49.64v2.64H28.53Z"/><path class="cls-1" d="M23.25,58.05h2.64v2.64H23.25Z"/><path class="cls-1" d="M23.25,63.33H49.64V66H23.25Z"/><path class="cls-1" d="M47,68.6h2.64v2.64H47Z"/><path class="cls-2" d="M23.25,68.6H44.36v2.64H23.25Z"/><path class="cls-2" d="M45.68,23.75H70.75v2.64H45.68Z"/><path class="cls-1" d="M45.68,29h2.64v2.64H45.68Z"/><path class="cls-1" d="M51,29H70.75v2.64H51Z"/><path class="cls-2" d="M45.68,34.3H65.47v2.64H45.68Z"/><path class="cls-1" d="M68.11,34.3h2.64v2.64H68.11Z"/><path class="cls-1" d="M6.1,5.28H8.74V7.92H6.1Z"/><path class="cls-1" d="M6.1,0H8.74V2.64H6.1Z"/><path class="cls-1" d="M0,59.66l1.65,2.06L7.42,57.1l5.77,4.62,1.65-2.06L7.42,53.72Z"/><path class="cls-2" d="M6.1,62H8.74v2.63H6.1Z"/><path class="cls-1" d="M6.1,67.28H8.74v2.64H6.1Z"/><path class="cls-2" d="M6.1,72.56H8.74V75.2H6.1Z"/></g></g></svg>