<svg xmlns="http://www.w3.org/2000/svg" viewBox="0 0 83.37 83.37"><defs><style>.cls-1{fill:#333;}.cls-2{fill:#e30613;}</style></defs><g id="Layer_2" data-name="Layer 2"><g id="Layer_4" data-name="Layer 4"><path class="cls-1" d="M75.44,56.88c-.63-.17-.66-.35-.42-.87a29.38,29.38,0,0,0,1.9-5.63c.12-.54.34-.65.84-.64,1.34,0,2.69,0,4,0a1.39,1.39,0,0,0,1.58-1.6q0-6.48,0-12.95c0-1.08-.5-1.57-1.6-1.58-1.35,0-2.69,0-4,0-.44,0-.67-.06-.79-.58a34.88,34.88,0,0,0-4.26-10.24.61.61,0,0,1,.1-.92c1.11-1.06,2.2-2.16,3.28-3.26a1.39,1.39,0,0,0,0-2.31c-3-3-6-6-9-9-.86-.86-1.5-.84-2.37,0-1.08,1.07-2.16,2.13-3.21,3.22a.6.6,0,0,1-.91.12A34.48,34.48,0,0,0,50.26,6.42c-.44-.11-.52-.29-.51-.68,0-1.37,0-2.74,0-4.12C49.75.51,49.27,0,48.19,0h-13a1.36,1.36,0,0,0-1.54,1.55c0,1.35,0,2.69,0,4,0,.56-.17.75-.7.87a34.52,34.52,0,0,0-10.09,4.2.64.64,0,0,1-1-.11C20.8,9.45,19.7,8.37,18.6,7.29a1.37,1.37,0,0,0-2.25,0q-4.53,4.52-9,9a1.39,1.39,0,0,0,0,2.31c1.07,1.07,2.13,2.15,3.22,3.2a.63.63,0,0,1,.13,1A34.38,34.38,0,0,0,6.43,33.07c-.11.47-.3.57-.73.56-1.37,0-2.74,0-4.12,0-1.08,0-1.57.5-1.58,1.6q0,6.48,0,13c0,1.09.5,1.57,1.59,1.58,1.38,0,2.75,0,4.12,0,.45,0,.61.12.72.57A30.1,30.1,0,0,0,8.36,56c.27.57.14.7-.44.86A10.74,10.74,0,0,0,10.06,78c.59,0,.75.18.71.76,0,.92,0,1.85,0,2.77,0,1.48.4,1.88,1.9,1.88H70.81c1.37,0,1.8-.43,1.8-1.81,0-1,0-2,0-3,0-.45.12-.57.56-.57a8.6,8.6,0,0,0,2.4-.39,10.74,10.74,0,0,0-.12-20.7ZM7,47.07c-1.26,0-2.52,0-3.78,0-.42,0-.57-.08-.57-.54q0-4.83,0-9.66c0-.53.2-.58.63-.57,1.26,0,2.52,0,3.78,0,1,0,1.45-.34,1.65-1.31a33.86,33.86,0,0,1,4.89-11.85c.64-1,.57-1.44-.27-2.28-1-1-2-2-3-3-.36-.34-.33-.53,0-.86q3.36-3.3,6.65-6.65c.41-.41.6-.3.92,0,1,1,2,2,3,3a1.42,1.42,0,0,0,2.15.28,33.57,33.57,0,0,1,12-5,1.4,1.4,0,0,0,1.23-1.54c0-1.32,0-2.64,0-3.95,0-.45.12-.56.56-.56q4.83,0,9.66,0c.44,0,.57.12.56.56,0,1.32,0,2.63,0,4A1.4,1.4,0,0,0,48.3,8.73a33.29,33.29,0,0,1,12.07,5,1.41,1.41,0,0,0,2-.21c1-1,2.07-2,3.08-3.09.33-.35.52-.44.91,0,2.2,2.24,4.42,4.45,6.66,6.66.33.33.34.52,0,.85-1,1-2,2-3,3s-.91,1.33-.23,2.36a33.83,33.83,0,0,1,4.84,11.69c.23,1.09.62,1.38,1.74,1.39s2.47,0,3.7,0c.43,0,.64,0,.64.57q0,4.83,0,9.66c0,.46-.14.55-.56.54-1.29,0-2.58,0-3.87,0a1.4,1.4,0,0,0-1.63,1.32,34.32,34.32,0,0,1-2.5,7.53c-.17.35-.31.58-.78.57-1.82,0-3.64,0-5.58,0a27.86,27.86,0,0,0,3.4-21.18A27.49,27.49,0,0,0,56.84,17.88a28.27,28.27,0,0,0-39.27,38.6c-1.91,0-3.73,0-5.55,0-.46,0-.61-.21-.77-.57a34.34,34.34,0,0,1-2.49-7.45C8.52,47.38,8.14,47.07,7,47.07ZM61.86,45c0-1.53-.4-1.92-2-1.92h-15c-1.42,0-1.84.42-1.84,1.85,0,3.62,0,7.23,0,10.84,0,.63-.15.79-.78.78-1.93,0-1.93,0-1.93-2V44.8c0-1.32-.44-1.77-1.76-1.77H23.29c-1.32,0-1.77.44-1.77,1.75,0,3.64,0,7.28,0,10.92,0,.25.22.64-.22.77s-.57-.22-.76-.5A25.53,25.53,0,0,1,37.65,16.48v5.83c0,1.49.4,1.92,1.88,1.88.63,0,.95.12.81.8a2.09,2.09,0,0,0,0,.25c0,.51.17,1.12-.05,1.49s-.92.1-1.41.17a1.55,1.55,0,0,0-.94.5c-.81.81-1.62,1.63-2.44,2.43A1.79,1.79,0,0,0,35,31.18c0,3-.05,3,2.08,5.08,1,1,1,1,2,0s.88-.88,0-1.79l-.84-.83a1.88,1.88,0,0,1,0-2.69,3.18,3.18,0,0,1,3.25-1.35,1,1,0,0,0,.42,0c1.63-.36,2.69.49,3.62,1.65a2.05,2.05,0,0,1-.07,2.15c-.49.5-1,1-1.49,1.48s-.44.56,0,1c1.44,1.44,1.3,1.3,2.9.06,1.82-1.42,1.71-3.22,1.61-5.13a1.42,1.42,0,0,0-.52-.93c-.57-.57-1.18-1.12-1.71-1.73a2.75,2.75,0,0,0-2.68-1.2c-.38.06-.49-.12-.45-.48s0-.45,0-.67c0-.47-.16-1.06.06-1.4s.88-.09,1.34-.15a1.35,1.35,0,0,0,1.29-1.47c0-1.79,0-3.59,0-5.38v-.83a25.49,25.49,0,0,1,21.2,21.32A25.06,25.06,0,0,1,63,55.7c-.07.11-.16.22-.23.34-.16.28-.35.52-.72.43s-.21-.46-.21-.69C61.85,52.17,61.86,48.56,61.86,45ZM57,45.71c2.2-.09,2.2-.11,2.2,2.1,0,2.66,0,5.33,0,8,0,.53-.11.7-.68.69-2,0-4.09,0-6.13,0s-4,0-6,0c-.47,0-.61-.11-.61-.59q0-4.8,0-9.58c0-.47.11-.61.59-.61m-10.74,0c2.09,0,2.09,0,2.09,2,0,2.69,0,5.38,0,8.06,0,.57-.17.69-.7.68-2,0-4,0-6,0s-4,0-6.05,0c-.57,0-.68-.17-.68-.7q0-4.69,0-9.41c0-.57.18-.67.7-.67m15.44-29c0-.44.15-.55.57-.58C43,16,43,16,43,18.09c0,.95,0,1.9,0,2.85,0,.39,0,.58-.52.59-2.18.06-2.18.08-2.18-2.12v-.5C40.34,18.19,40.37,17.46,40.33,16.73ZM3,69.3a8.09,8.09,0,0,1,0-4.23c.09-.33.18-.53.59-.53H14.18a5.25,5.25,0,0,0-.06,5.23c-.11.21-.27.14-.39.14-3.3,0-6.6,0-9.91,0C3.32,69.94,3.09,69.82,3,69.3ZM68.07,80.68q-26.85,0-53.69,0c-.76,0-1-.18-1-.94.06-1.77,0-1.77,1.79-1.77H41.69q13.7,0,27.39,0c.7,0,.88.15.86.85C69.89,80.68,69.93,80.68,68.07,80.68ZM73,75.29H11.12a8.29,8.29,0,0,1-6.34-2.7c4.81,0,9.43,0,14,0a5.37,5.37,0,1,0-.06-10.74h-14a8,8,0,0,1,5.47-2.67c.22,0,.44,0,.67,0q30.75,0,61.5,0A8.06,8.06,0,0,1,73,75.29ZM16.14,67.2a2.69,2.69,0,1,1,2.7,2.72A2.7,2.7,0,0,1,16.14,67.2Z"/><path class="cls-1" d="M32.28,61.86a5.38,5.38,0,1,0,5.37,5.4A5.38,5.38,0,0,0,32.28,61.86Zm0,8.06A2.69,2.69,0,1,1,35,67.25,2.7,2.7,0,0,1,32.3,69.92Z"/><path class="cls-2" d="M45.78,61.86a5.38,5.38,0,1,0,5.32,5.46A5.38,5.38,0,0,0,45.78,61.86Zm-.12,8.06a2.69,2.69,0,1,1,2.75-2.66A2.71,2.71,0,0,1,45.66,69.92Z"/><path class="cls-1" d="M59.11,61.86a5.38,5.38,0,1,0,5.43,5.34A5.39,5.39,0,0,0,59.11,61.86Zm0,8.06a2.69,2.69,0,1,1,2.77-2.64A2.7,2.7,0,0,1,59.08,69.92Z"/><path class="cls-2" d="M72.65,61.86A5.38,5.38,0,1,0,78,67.29,5.39,5.39,0,0,0,72.65,61.86Zm-.08,8.06a2.69,2.69,0,1,1,2.73-2.6A2.7,2.7,0,0,1,72.57,69.92Z"/></g></g></svg>