<svg xmlns="http://www.w3.org/2000/svg" viewBox="0 0 81.79 81.8"><defs><style>.cls-1{fill:#333;}.cls-2{fill:#e30613;}</style></defs><g id="Layer_2" data-name="Layer 2"><g id="Layer_4" data-name="Layer 4"><path class="cls-1" d="M81.54,52.38a1.36,1.36,0,0,0-1.11-.58H68.16V12.27a1.36,1.36,0,0,0-1.36-1.36H62.71V6.82a1.36,1.36,0,0,0-1.36-1.37H28.63a5.46,5.46,0,0,0-10.91,0H13.63a1.36,1.36,0,0,0-1.36,1.37v45H1.36A1.36,1.36,0,0,0,0,53.17a1.34,1.34,0,0,0,.17.65l15,27.27a1.37,1.37,0,0,0,1.2.7H70.89a1.29,1.29,0,0,0,1.28-.91h0l9.54-27.27A1.35,1.35,0,0,0,81.54,52.38ZM62.71,62.71V13.63h2.73V67.69l-2.74-5Zm-39.53-60A2.72,2.72,0,0,1,25.9,5.45H20.45A2.72,2.72,0,0,1,23.18,2.73ZM15,8.18H25.9v4.09a1.37,1.37,0,0,1-2.73,0V10.91H20.45v1.36a4.09,4.09,0,0,0,8.18,0V8.18H60V57.77l-2.89-5.26a1.36,1.36,0,0,0-1.2-.71H15Zm2.16,70.89L3.67,54.53H55.09L68.58,79.07Zm53.46-2-2.46-4.45V54.53H78.51Z"/><path class="cls-2" d="M68.16,5.45H65.44V8.18h2.72a2.73,2.73,0,0,1,2.73,2.73V30h2.73V10.91A5.46,5.46,0,0,0,68.16,5.45Z"/><rect class="cls-1" x="70.89" y="32.72" width="2.73" height="2.73"/><rect class="cls-2" x="6.82" y="27.26" width="2.73" height="19.09"/><rect class="cls-1" x="6.82" y="21.81" width="2.73" height="2.73"/><path class="cls-2" d="M46.35,17.72H42.26V13.63a1.36,1.36,0,0,0-1.36-1.36H35.44a1.36,1.36,0,0,0-1.36,1.36v4.09H30a1.36,1.36,0,0,0-1.36,1.37v5.45A1.36,1.36,0,0,0,30,25.9h4.09V30a1.36,1.36,0,0,0,1.36,1.36H40.9A1.36,1.36,0,0,0,42.26,30V25.9h4.09a1.36,1.36,0,0,0,1.36-1.36V19.09A1.36,1.36,0,0,0,46.35,17.72ZM45,23.18H40.9a1.36,1.36,0,0,0-1.37,1.36v4.09H36.81V24.54a1.36,1.36,0,0,0-1.37-1.36H31.35V20.45h4.09a1.36,1.36,0,0,0,1.37-1.36V15h2.72v4.09a1.36,1.36,0,0,0,1.37,1.36H45Z"/><rect class="cls-1" x="21.81" y="34.08" width="2.73" height="2.73"/><rect class="cls-1" x="27.26" y="34.08" width="28.63" height="2.73"/><rect class="cls-2" x="19.09" y="39.53" width="36.81" height="2.73"/><rect class="cls-1" x="19.09" y="44.99" width="31.35" height="2.73"/><rect class="cls-1" x="54.3" y="12.27" width="2.8" height="2.73"/><rect class="cls-1" x="54.53" y="17.72" width="2.73" height="2.73"/></g></g></svg>