<svg xmlns="http://www.w3.org/2000/svg" viewBox="0 0 84.2 61.75"><defs><style>.cls-1{fill:#333;}.cls-2{fill:#e30613;}</style></defs><g id="Layer_2" data-name="Layer 2"><g id="Layer_4" data-name="Layer 4"><path class="cls-1" d="M82.73,24.82a1.41,1.41,0,0,0-1.34-1H75.78a1.4,1.4,0,0,0-1.4,1.4v7H71.57V21.05a1.4,1.4,0,0,0-1.4-1.4H58.94v-7a1.4,1.4,0,0,0-1.4-1.4H47.71V8.42H66A1.4,1.4,0,0,0,67.36,7V1.4A1.4,1.4,0,0,0,66,0H21.05a1.4,1.4,0,0,0-1.4,1.4V7a1.4,1.4,0,0,0,1.4,1.4H39.29v2.81H29.47a1.4,1.4,0,0,0-1.4,1.4V20.3l-7.44,5h-8a1.4,1.4,0,0,0-1.4,1.4v4.21H8.42V19.65A1.41,1.41,0,0,0,7,18.24H1.4A1.41,1.41,0,0,0,0,19.65V54.73a1.4,1.4,0,0,0,1.4,1.4H7a1.4,1.4,0,0,0,1.4-1.4V44.91h2.81v4.21a1.4,1.4,0,0,0,1.4,1.4h8L28.7,55.9a1.39,1.39,0,0,0,.77.23h2.81v4.21a1.41,1.41,0,0,0,1.4,1.41H53.33a1.41,1.41,0,0,0,1.4-1.41V56.13H70.17a1.4,1.4,0,0,0,1.4-1.4V43.5h2.81v7a1.4,1.4,0,0,0,1.4,1.4h5.61a1.41,1.41,0,0,0,1.34-1l1.4-4.21a1.31,1.31,0,0,0,.07-.44V29.47a1.31,1.31,0,0,0-.07-.44Zm-60.28-22h42.1v2.8H22.45ZM42.1,8.42h2.81v2.81H42.1ZM5.61,53.33H2.81V21.05h2.8ZM8.42,42.1V33.68h2.81V42.1ZM21.83,48a1.43,1.43,0,0,0-.78-.24H14V28.07h5.62v8.42a1.4,1.4,0,1,0,2.8,0V27.41l7.8-5.19a1.38,1.38,0,0,0,.62-1.17V14H56.13v5.62h-14a1.4,1.4,0,0,0,0,2.8h21V53.33H29.89Zm30.09,11H35.08V56.13H51.92Zm16.84-5.61H66V22.45h2.8ZM71.57,40.7V35.08h2.81V40.7Zm9.82,5.38-1,3h-3.2V26.66h3.2l1,3Z"/><path class="cls-1" d="M35.08,22.45h1.41a1.4,1.4,0,0,0,0-2.8H35.08a1.4,1.4,0,1,0,0,2.8Z"/><path class="cls-1" d="M21.05,40.7a1.4,1.4,0,0,0-1.4,1.4v1.4a1.4,1.4,0,1,0,2.8,0V42.1A1.4,1.4,0,0,0,21.05,40.7Z"/><path class="cls-2" d="M26.66,30.87H58.94a1.4,1.4,0,1,0,0-2.8H26.66a1.4,1.4,0,1,0,0,2.8Z"/><path class="cls-1" d="M26.66,36.49H58.94a1.41,1.41,0,0,0,0-2.81H26.66a1.41,1.41,0,0,0,0,2.81Z"/><path class="cls-2" d="M26.66,42.1H58.94a1.41,1.41,0,0,0,0-2.81H26.66a1.41,1.41,0,0,0,0,2.81Z"/><path class="cls-1" d="M60.34,46.31a1.4,1.4,0,0,0-1.4-1.4H26.66a1.4,1.4,0,1,0,0,2.8H58.94A1.39,1.39,0,0,0,60.34,46.31Z"/></g></g></svg>