<svg xmlns="http://www.w3.org/2000/svg" viewBox="0 0 75.75 75.75"><defs><style>.cls-1{fill:#333;}.cls-2{fill:#e30613;}</style></defs><g id="Layer_2" data-name="Layer 2"><g id="Layer_4" data-name="Layer 4"><path class="cls-1" d="M7.72,75.75A7.71,7.71,0,0,1,1.07,64.12L15.8,39.07V18.9a1.52,1.52,0,0,1,1.51-1.51h7.91a1.51,1.51,0,0,1,1.5,1.51V39L42.91,64a7.61,7.61,0,0,1-6.39,11.74Zm11.1-36.29a1.54,1.54,0,0,1-.2.76l-15,25.43a4.71,4.71,0,0,0,4.06,7.09H36.52a4.59,4.59,0,0,0,3.86-7.09L24,40.27a1.45,1.45,0,0,1-.24-.81v-19l-4.9-.08Z"/><path class="cls-2" d="M7.91,69.43a1.5,1.5,0,0,1-1.5-1.5,1.49,1.49,0,0,1,.21-.77L20,44.34,22.67,46,10.61,66.3l8.29.12-.08,3.09Z"/><path class="cls-1" d="M49,75.75a7.84,7.84,0,0,1-7.83-7.83V42.62a6.26,6.26,0,0,1,6.25-6.25H72a3.75,3.75,0,0,1,2.65,6.39L71,46.38l0,21.54a7.84,7.84,0,0,1-7.83,7.83H49ZM47.37,39.38a3.25,3.25,0,0,0-3.24,3.24v25.3A4.82,4.82,0,0,0,49,72.74H63.18A4.82,4.82,0,0,0,68,67.92V45.78a1.52,1.52,0,0,1,.44-1.06l4.09-4.09a.73.73,0,0,0,.22-.52.75.75,0,0,0-.74-.73Z"/><path class="cls-2" d="M56.85,69.43l.08-3.09,4.67.08.08-20.64,3.08.08-.07,22.06a1.52,1.52,0,0,1-1.51,1.51Z"/><path class="cls-1" d="M56.4,34a23.83,23.83,0,0,0-14.06-8.44,1.49,1.49,0,0,1-1.22-1.48v-21l-8-.08-.07,21.46a1.51,1.51,0,0,1-1.13,1.46A24.1,24.1,0,0,0,26,28.36L24.5,25.65A32.24,32.24,0,0,1,30,23.35L30.05,1.5A1.5,1.5,0,0,1,31.55,0H42.62a1.51,1.51,0,0,1,1.51,1.5V22.83A27.44,27.44,0,0,1,58.8,32.19Z"/><path class="cls-2" d="M67.13,33.06a5.46,5.46,0,1,1,5.46-5.46A5.46,5.46,0,0,1,67.13,33.06Zm0-7.91a2.45,2.45,0,1,0,2.45,2.45A2.45,2.45,0,0,0,67.13,25.15Z"/><path class="cls-1" d="M61.6,20.4a4.67,4.67,0,1,1,4.67-4.66A4.67,4.67,0,0,1,61.6,20.4Zm0-6.32a1.66,1.66,0,1,0,1.66,1.66A1.66,1.66,0,0,0,61.6,14.08Z"/><path class="cls-1" d="M5.46,23.57a5.46,5.46,0,1,1,5.46-5.46A5.47,5.47,0,0,1,5.46,23.57Zm0-7.91a2.45,2.45,0,1,0,2.45,2.45A2.45,2.45,0,0,0,5.46,15.66Z"/><path class="cls-2" d="M12.57,10.92a4.67,4.67,0,1,1,4.67-4.67A4.67,4.67,0,0,1,12.57,10.92Zm0-6.33a1.66,1.66,0,1,0,1.66,1.66A1.65,1.65,0,0,0,12.57,4.59Z"/><polygon class="cls-1" points="47.37 48.87 47.44 45.78 52.11 45.86 52.03 48.87 47.37 48.87"/><polygon class="cls-1" points="47.37 55.2 47.44 52.11 50.53 52.19 50.45 55.2 47.37 55.2"/><polygon class="cls-1" points="47.37 61.52 47.44 58.44 52.11 58.51 52.03 61.52 47.37 61.52"/><polygon class="cls-1" points="47.37 67.85 47.44 64.76 50.53 64.84 50.45 67.85 47.37 67.85"/><polygon class="cls-1" points="3.09 31.48 3.16 28.39 6.25 28.46 6.17 31.48 3.09 31.48"/><polygon class="cls-1" points="7.83 39.38 7.91 36.3 10.99 36.37 10.92 39.38 7.83 39.38"/><polygon class="cls-1" points="34.72 45.71 34.79 42.62 37.88 42.7 37.8 45.71 34.72 45.71"/><polygon class="cls-2" points="31.55 39.38 31.63 36.3 34.72 36.37 34.64 39.38 31.55 39.38"/><polygon class="cls-1" points="29.97 33.05 30.05 29.97 33.13 30.05 33.06 33.05 29.97 33.05"/><polygon class="cls-1" points="31.55 67.85 31.63 64.76 34.72 64.84 34.64 67.85 31.55 67.85"/><polygon class="cls-1" points="26.81 61.52 26.89 58.44 29.97 58.51 29.89 61.52 26.81 61.52"/></g></g></svg>