<svg xmlns="http://www.w3.org/2000/svg" viewBox="0 0 73.88 81.8"><defs><style>.cls-1{fill:#333;}.cls-2{fill:#e30613;}</style></defs><g id="Layer_2" data-name="Layer 2"><g id="Layer_4" data-name="Layer 4"><path class="cls-1" d="M44.86,5.28H58.05V7.92H44.86Z"/><path class="cls-1" d="M10.55,56.73h5.28V66h2.64V54.09H10.55Z"/><path class="cls-1" d="M15.83,48.81H10.55v2.64h7.92V40.9H15.83Z"/><path class="cls-2" d="M21.11,40.9h2.64V66H21.11Z"/><path class="cls-1" d="M29,46.17H48.81v2.64H29Z"/><path class="cls-1" d="M34.3,51.45H48.81v2.64H34.3Z"/><path class="cls-1" d="M39.58,62h2.64v9.23H39.58Z"/><path class="cls-1" d="M29,40.9H43.54v2.64H29Z"/><path class="cls-1" d="M29,59.37h4V71.24h2.64V56.73H29Z"/><path class="cls-2" d="M46.17,71.24h2.64V59.37h4V56.73h-6.6Z"/><path class="cls-1" d="M44.86,15.83H39.58v2.64h2.64V30.34h2.64Z"/><path class="cls-2" d="M47.49,22.43h2.64v-4h7.92V15.83H47.49Z"/><path class="cls-2" d="M52.77,10.55H39.58V5.28H36.94v7.91H52.77Z"/><path class="cls-2" d="M13.19,26.39h13.2V13.19H13.19Zm2.64-10.56h7.92v7.92H15.83Z"/><path class="cls-1" d="M58.05,46.17H68.6V35.62H58.05Zm2.64-7.91H66v5.28H60.69Z"/><path class="cls-1" d="M69.92,30.34H63.33V0H0V81.8H63.33V51.45h6.59a4,4,0,0,0,4-4V34.3A4,4,0,0,0,69.92,30.34Zm-33,48.82H34.3V76.52h2.64Zm-5.28,0H29V76.52h2.64Zm-5.27,0H23.75V76.52h2.64Zm-5.28,0H18.47V76.52h2.64Zm-5.28,0H13.19V76.52h2.64Zm-5.28,0H7.92V76.52h2.63ZM58.05,66h2.64V68.6H58.05Zm0-2.63V60.69h2.64v2.64Zm0,7.91h2.64v2.64H58.05Zm2.64-13.19H55.41V76.52h5.28v2.64H39.58V73.88H5.28v5.28H2.64V2.64H60.69v27.7h-4a4,4,0,0,0-4,4V47.49a4,4,0,0,0,4,4h4ZM71.24,47.49a1.32,1.32,0,0,1-1.32,1.32H56.73a1.32,1.32,0,0,1-1.32-1.32V34.3A1.32,1.32,0,0,1,56.73,33H69.92a1.32,1.32,0,0,1,1.32,1.32Z"/><path class="cls-1" d="M29,34.3V31.66h2.64V26.39H34.3V23.75H31.66V21.11H34.3V18.47H31.66V15.83H34.3V13.19H31.66V7.92H29V5.28H26.39V7.92H23.75V5.28H21.11V7.92H18.47V5.28H15.83V7.92H13.19V5.28H10.55V7.92H7.92v5.27H5.28v2.64H7.92v2.64H5.28v2.64H7.92v2.64H5.28v2.64H7.92v5.27h2.63V34.3h2.64V31.66h2.64V34.3h2.64V31.66h2.64V34.3h2.64V31.66h2.64V34.3ZM10.55,10.55H29V29H10.55Z"/><path class="cls-1" d="M5.28,48.81H7.92v2.64H5.28Z"/><path class="cls-1" d="M5.28,54.09H7.92v2.64H5.28Z"/><path class="cls-1" d="M21.11,68.6h2.64v2.64H21.11Z"/><path class="cls-1" d="M39.58,56.73h2.64v2.64H39.58Z"/><path class="cls-1" d="M46.17,73.88h2.64v2.64H46.17Z"/><path class="cls-1" d="M29,51.45h2.64v2.64H29Z"/><path class="cls-1" d="M46.17,40.9h2.64v2.64H46.17Z"/><path class="cls-1" d="M47.49,25.07h2.64V27.7H47.49Z"/><path class="cls-1" d="M42.22,33h2.64v2.64H42.22Z"/><path class="cls-1" d="M55.41,10.55h2.64v2.64H55.41Z"/></g></g></svg>