<svg xmlns="http://www.w3.org/2000/svg" viewBox="0 0 85.04 85.07"><defs><style>.cls-1{fill:#333;}.cls-2{fill:#e30613;}</style></defs><g id="Layer_2" data-name="Layer 2"><g id="Layer_4" data-name="Layer 4"><path class="cls-1" d="M80.78,76.56q-7.44,0-14.88,0c-.57,0-.76-.14-.72-.72s0-1.42,0-2.13A4.21,4.21,0,0,0,61,69.48q-18.46,0-36.93,0a4.2,4.2,0,0,0-4.2,4.24,14.09,14.09,0,0,0,0,2c.08.75-.18.91-.91.91-4.87,0-9.74,0-14.61,0a4.25,4.25,0,1,0,.18,8.5H80.34a4.78,4.78,0,0,0,2.92-.81,4.24,4.24,0,0,0-2.48-7.7Zm-58.12-1c.07-.61,0-1.24,0-1.86a1.4,1.4,0,0,1,1.46-1.44h36.2c1.62,0,2,.41,2,2,0,.7.24,1.64-.11,2.05s-1.39.15-2.11.15H42.53c-6.31,0-12.63,0-18.94,0C22.78,76.59,22.59,76.35,22.66,75.61Zm57.77,6.62H5a5.27,5.27,0,0,1-.89,0,1.36,1.36,0,0,1-1.25-1.37A1.38,1.38,0,0,1,4.12,79.4a7.12,7.12,0,0,1,.8,0H80.45c1.11,0,1.75.53,1.75,1.43S81.55,82.23,80.43,82.23Z"/><path class="cls-1" d="M8.49,53.25a2.55,2.55,0,0,0,.82,2q1.71,1.6,3.32,3.32a2.77,2.77,0,0,0,2.25,1c6.2,0,12.4,0,18.6,0,2,0,1.92,0,2-1.95,0-.75-.17-.91-.91-.91-6.34,0-12.69,0-19,0a1.47,1.47,0,0,1-1.23-.5c-.79-.84-1.6-1.66-2.45-2.44a1.51,1.51,0,0,1-.49-1.23q0-22.77,0-45.54a1.53,1.53,0,0,1,.49-1.24c.83-.76,1.62-1.55,2.38-2.38a1.71,1.71,0,0,1,1.39-.56c10.54,0,21.08.08,31.62,0,2.29,0,4.13.35,5.47,2.29a2.61,2.61,0,0,0,.62.62,1.53,1.53,0,0,1,.57,1.39q0,12.4,0,24.8c0,2.16,0,2.14,2.12,2.15.56,0,.73-.13.73-.71q0-13.65,0-27.29a2.07,2.07,0,0,0-.63-1.58C54.79,3.19,53.51,1.92,52.25.63A2.05,2.05,0,0,0,50.67,0H14.53a2.15,2.15,0,0,0-1.64.69C11.76,1.86,10.63,3,9.44,4.13a2.8,2.8,0,0,0-.95,2.26c0,7.79,0,15.59,0,23.38S8.51,45.43,8.49,53.25Z"/><path class="cls-1" d="M44.75,38.27c.91,0,1.83,0,2.74,0,.62,0,.71-.2.71-.74,0-2.11,0-2.11-2.07-2.11-2.26,0-2.24,0-2.21-2.24,0-.54.19-.62.66-.61,1,0,2.07,0,3.1,0,1.46,0,1.92-.45,1.92-1.88q0-8.06,0-16.12c0-1.38-.47-1.84-1.87-1.84H17.44c-1.39,0-1.85.47-1.85,1.86v16c0,1.51.44,1.94,1.95,1.94H39.06c2,0,2,0,2.06,2,0,.68-.17.82-.82.81-7.12,0-14.23,0-21.35,0-1.95,0-1.9,0-2,1.95,0,.76.19.9.91.9,7.44,0,14.88,0,22.32,0,.76,0,.91.2.9.92,0,2.77,0,5.55,0,8.33,0,2.14,0,2.11,2.14,2.13.6,0,.71-.19.71-.74,0-3.28,0-6.56,0-9.83C43.91,38.37,44.12,38.23,44.75,38.27ZM43.08,26.93c-2,0-2,0-2,2,0,.74-.23.84-.88.84q-10.5,0-21,0c-.6,0-.85-.06-.85-.78.05-4.23,0-8.45,0-12.67,0-.65.19-.76.79-.75,4.48,0,9,0,13.46,0s8.85,0,13.28,0c.6,0,.86.05.85.78q-.06,6.33,0,12.67c0,.64-.19.76-.79.75-2.06,0-2.1,0-2-2C44,27,43.73,26.91,43.08,26.93Z"/><path class="cls-1" d="M83.1,46.79c-5.49,0-11,.12-16.47-.06-2.44-.08-4.38.4-5.81,2.43a1.22,1.22,0,0,1-1.16.47c-1.41,0-2.83,0-4.25,0a1.34,1.34,0,0,0-1.44.94c-.13.46-.37.49-.75.49-2,0-4.07,0-6.11,0a2,2,0,0,0-1.57.64c-2,2-4.06,4-6.07,6.09A4.42,4.42,0,1,0,45.71,64c.83-.79,1.63-1.62,2.45-2.44,2.11-2.11,2.11-2.11,5.1-2h.27c.2,0,.3.05.36.27.26,1,1,1.16,1.92,1.15,4.55,0,9.09,0,13.64,0H83.18c1.38,0,1.85-.47,1.86-1.85V48.74C85,47.23,84.6,46.79,83.1,46.79ZM51.67,56.67a4.91,4.91,0,0,0-4.54,1.88,44.91,44.91,0,0,1-3.29,3.33,1.61,1.61,0,1,1-2.23-2.25c1.73-1.74,3.47-3.45,5.18-5.2a1.65,1.65,0,0,1,1.38-.57c.8,0,1.6,0,2.39,0s1.77,0,2.65,0c.47,0,.66.07.66.6C53.9,56.71,53.91,56.83,51.67,56.67Zm7.27,1.47c-2.25,0-2.25.06-2.25-2.19v-.71c0-.77,0-1.53,0-2.3,0-.4.13-.47.51-.49,2.34-.12,2.34-.13,2.34,2.19,0,1,0,2,0,2.92C59.56,58,59.39,58.13,58.94,58.14ZM73.69,58c-.12.19-.31.12-.48.13H70.83c-.73,0-1.47,0-2.2,0-.41,0-.61,0-.62-.56,0-1.86.36-2.29,2.22-2.29.68,0,1.36,0,2,0A2,2,0,0,1,73.69,58Zm7.85.14c-1.47,0-3,0-4.42,0-.46,0-.62-.11-.6-.58a6.08,6.08,0,0,0-.12-1.85,4.21,4.21,0,0,0-4-3.24c-1,0-1.95,0-2.92,0a4.25,4.25,0,0,0-4.26,4.28c0,1.39,0,1.39-1.45,1.39s-1.39,0-1.39-1.35.08-2.43,0-3.63a3,3,0,0,1,1.06-2.61,2.89,2.89,0,0,1,2.31-.94c2.5.07,5,0,7.52,0,2.77,0,5.54,0,8.31,0,.56,0,.68.15.68.68q-.06,3.59,0,7.17C82.22,58,82.09,58.16,81.54,58.14Z"/><path class="cls-2" d="M30.37,51.86c.34-.36.28-.53,0-.84L19.82,40.51a3.58,3.58,0,0,0-.41-.35l-.34.31a15,15,0,0,1-1.14,1.12c-.51.41-.4.67,0,1.09q4.65,4.6,9.27,9.25C28.81,53.52,28.8,53.51,30.37,51.86Z"/><path class="cls-1" d="M19.16,63.8C17,63.8,17,63.8,17,66c0,.58.19.66.7.66,2.36,0,4.73,0,7.09,0h5.75c2.09,0,2.06,0,2.09-2.1,0-.65-.21-.75-.8-.74C27.6,63.81,23.38,63.8,19.16,63.8Z"/><path class="cls-2" d="M51.35,47.35c.71.46,1.45.88,2.18,1.32.33-.05.37-.35.49-.56C56,44.76,57.91,41.39,59.85,38c1.2-2.08,1.2-2.07-1-3.1-.32-.15-.44-.08-.6.2Q54.87,41,51.45,46.9C51.38,47,51.16,47.22,51.35,47.35Z"/><path class="cls-1" d="M64.48,66.63c2.19,0,2.17,0,2.15-2.21,0-.5-.14-.64-.64-.63-2.12,0-4.25,0-6.37,0h-5c-2.16,0-2.13,0-2.15,2.12,0,.58.15.73.73.73C56.93,66.62,60.71,66.63,64.48,66.63Z"/><path class="cls-1" d="M32.38,50.18c.57.08,1.26-.63,1.9-1l.15-.09c.32-.13.25-.32.11-.55q-2.37-4.08-4.72-8.18c-.2-.35-.36-.37-.68-.16-.65.41-1.32.77-2,1.17,1.36,2.37,2.7,4.72,4.07,7.06C31.56,49.06,31.79,50.09,32.38,50.18Z"/><path class="cls-2" d="M37.18,40.83c-.63.17-1.25.34-1.88.48-.44.1-.62.24-.45.76.33,1,.53,2,.8,3,.6,2.23.6,2.23,2.8,1.52l.17,0c.3-.07.31-.22.23-.51-.45-1.61-.87-3.23-1.29-4.85C37.5,41,37.48,40.74,37.18,40.83Z"/><path class="cls-1" d="M47,46.65c.63.09,1.43.58,1.81.35s.43-1.15.6-1.77c.32-1.16.62-2.32.93-3.48.09-.32-.18-.33-.35-.38-.57-.16-1.15-.25-1.7-.46s-.68,0-.8.5c-.33,1.4-.69,2.79-1.13,4.16C46.08,46.28,46.22,46.55,47,46.65Z"/><path class="cls-2" d="M17,7c0-1.36,0-1.36-1.39-1.36s-1.45,0-1.45,1.48,0,1.35,1.39,1.35S17,8.51,17,7Z"/><path class="cls-2" d="M51,7.05c0-1.37,0-1.37-1.37-1.37s-1.46,0-1.46,1.46,0,1.37,1.37,1.37S51,8.51,51,7.05Z"/><path class="cls-1" d="M29.18,25.22c-.19-.16-.31-.25-.41-.35-.54-.55-1.4-1-1.5-1.66s.87-1.06,1.37-1.57c1.32-1.35,2.68-2.67,4-4,.33-.33.54-.45.88,0s1.33,1,1.41,1.62c0,.43-.85,1-1.35,1.5l-4,4A5.45,5.45,0,0,0,29.18,25.22Zm7.37.52c-.75.79-1.54,1.54-2.31,2.31a1.21,1.21,0,0,1-.14.1c-.62-.62-1.65-1.17-1.77-1.88s1-1.26,1.6-1.89,1.17-1.16,1.74-1.77c.28-.3.49-.42.82,0,.48.55,1.37,1,1.44,1.6S37.05,25.22,36.55,25.74Z"/><path class="cls-2" d="M34.92,19.21c-.08-.59-.93-1.06-1.41-1.62s-.55-.3-.88,0c-1.31,1.35-2.67,2.67-4,4-.5.51-1.47,1-1.37,1.57s1,1.11,1.5,1.66c.1.1.22.19.41.35a5.45,5.45,0,0,1,.39-.5l4-4C34.07,20.21,35,19.64,34.92,19.21Z"/><path class="cls-1" d="M36.49,22.57c-.33-.38-.54-.26-.82,0-.57.61-1.19,1.15-1.74,1.77s-1.73,1.14-1.6,1.89,1.15,1.26,1.77,1.88a1.21,1.21,0,0,0,.14-.1c.77-.77,1.56-1.52,2.31-2.31.5-.52,1.44-1,1.38-1.57S37,23.12,36.49,22.57Z"/></g></g></svg>