<svg xmlns="http://www.w3.org/2000/svg" viewBox="0 0 88.73 88.74"><defs><style>.cls-1{fill:#333;}.cls-2{fill:#e30613;}</style></defs><g id="Layer_2" data-name="Layer 2"><g id="Layer_4" data-name="Layer 4"><path class="cls-1" d="M83,21.48H81.15a12.88,12.88,0,1,0-19.18,0H44.36V7.17a1.43,1.43,0,0,0-1.43-1.43H37.21a1.43,1.43,0,0,0-1.43,1.43V21.48H34.35v-20A1.43,1.43,0,0,0,32.92,0H27.19a1.43,1.43,0,0,0-1.43,1.43v20H24.33v-10A1.43,1.43,0,0,0,22.9,10H17.17a1.43,1.43,0,0,0-1.43,1.43v10h-10A5.72,5.72,0,0,0,0,27.2V70.14a5.72,5.72,0,0,0,5.72,5.72h29.5l-1.91,5.73H28.62A1.43,1.43,0,0,0,27.19,83v2.86H12.88a1.43,1.43,0,0,0,0,2.86h63a1.43,1.43,0,0,0,0-2.86H61.54V83a1.43,1.43,0,0,0-1.43-1.43h-4.7l-1.9-5.73H83a5.72,5.72,0,0,0,5.73-5.72V27.2A5.72,5.72,0,0,0,83,21.48ZM73,3a10,10,0,0,1,8.48,8.48H73Zm-.84,11.34h9.32a10,10,0,0,1-15.91,6.59ZM61.54,12.89A10,10,0,0,1,70.12,3V12.3l-6.58,6.59A10,10,0,0,1,61.54,12.89ZM38.64,8.6H41.5V35.79H38.64ZM34.35,24.34h1.43V35.79H34.35ZM28.62,2.87h2.86V35.79H28.62ZM24.33,24.34h1.43V35.79H24.33ZM18.6,12.89h2.87v22.9H18.6ZM58.68,84.45v1.43H30.05V84.45ZM36.33,81.59l1.91-5.73H50.49l1.91,5.73ZM85.87,70.14A2.87,2.87,0,0,1,83,73H5.72a2.86,2.86,0,0,1-2.86-2.86V67.27h83Zm0-5.73h-83V27.2a2.86,2.86,0,0,1,2.86-2.86h10V35.79H14.31V27.2a1.43,1.43,0,0,0-1.43-1.43H7.16A1.44,1.44,0,0,0,5.72,27.2v10a1.44,1.44,0,0,0,1.44,1.43H53a1.43,1.43,0,0,0,1.43-1.43v-10A1.43,1.43,0,0,0,53,25.77H47.23A1.43,1.43,0,0,0,45.8,27.2v8.59H44.36V24.34H65.67a12.83,12.83,0,0,0,11.78,0H83a2.87,2.87,0,0,1,2.87,2.86ZM11.45,28.63v7.16H8.59V28.63Zm37.21,7.16V28.63h2.86v7.16Z"/><path class="cls-1" d="M15.74,68.7H7.16a1.44,1.44,0,1,0,0,2.87h8.58a1.44,1.44,0,0,0,0-2.87Z"/><path class="cls-1" d="M21.47,68.7H20a1.44,1.44,0,1,0,0,2.87h1.43a1.44,1.44,0,0,0,0-2.87Z"/><path class="cls-1" d="M60.11,35.79a1.42,1.42,0,0,0,1-.42l5.3-5.31H78.71a1.43,1.43,0,1,0,0-2.86H65.83a1.42,1.42,0,0,0-1,.42L59.1,33.35a1.43,1.43,0,0,0,1,2.44Z"/><path class="cls-2" d="M78.71,51.53A4.3,4.3,0,0,0,75,53.67L60,44.93a4.29,4.29,0,0,0-8.43.11L36.51,56.35a4.29,4.29,0,0,0-7.42.39l-14.9-6.21a4.3,4.3,0,1,0-.35,2.95l14.9,6.21a4.29,4.29,0,0,0,8.4-.24l15.08-11.3a4.29,4.29,0,0,0,5.93,1.26A4.35,4.35,0,0,0,59.53,48l15,8.74a4.29,4.29,0,1,0,4.2-5.17Zm-67.26,0A1.44,1.44,0,1,1,10,50.1a1.44,1.44,0,0,1,1.43,1.44Zm21.47,8.58a1.44,1.44,0,0,1-1.44-1.43h0a1.44,1.44,0,1,1,1.44,1.44ZM55.81,47.24a1.43,1.43,0,1,1,1.43-1.43A1.43,1.43,0,0,1,55.81,47.24Zm22.9,10a1.44,1.44,0,1,1,1.43-1.44A1.43,1.43,0,0,1,78.71,57.26Z"/><path class="cls-1" d="M67.26,60.12h-10a1.43,1.43,0,0,0,0,2.86h10a1.43,1.43,0,0,0,0-2.86Z"/><path class="cls-1" d="M67.26,55.82H63a1.44,1.44,0,0,0,0,2.87h4.29a1.44,1.44,0,0,0,0-2.87Z"/><path class="cls-1" d="M7.16,42.94H22.9a1.43,1.43,0,0,0,0-2.86H7.16a1.43,1.43,0,1,0,0,2.86Z"/><path class="cls-1" d="M27.19,42.94h1.43a1.43,1.43,0,0,0,0-2.86H27.19a1.43,1.43,0,1,0,0,2.86Z"/></g></g></svg>