<?xml version="1.0" encoding="utf-8"?>
<!-- Generator: Adobe Illustrator 27.0.0, SVG Export Plug-In . SVG Version: 6.00 Build 0)  -->
<svg version="1.1" id="Camada_1" xmlns="http://www.w3.org/2000/svg" xmlns:xlink="http://www.w3.org/1999/xlink" x="0px" y="0px"
	 viewBox="0 0 150.3 50" style="enable-background:new 0 0 150.3 50;" xml:space="preserve">
<style type="text/css">
	.st0{clip-path:url(#SVGID_00000023983815324687491830000007199391736252257694_);fill:#FF0000;}
	.st1{clip-path:url(#SVGID_00000023983815324687491830000007199391736252257694_);fill:#FFFFFF;}
	.st2{clip-path:url(#SVGID_00000023983815324687491830000007199391736252257694_);}
	
		.st3{clip-path:url(#SVGID_00000106850846452976518210000010552297411582049413_);fill-rule:evenodd;clip-rule:evenodd;fill:#FFFFFF;}
</style>
<g id="SENAI_x5F_rgb_00000115493807487861116970000009001315340226369923_">
	<g>
		<defs>
			<rect id="SVGID_1_" x="9.1" y="8.2" width="132" height="33.7"/>
		</defs>
		<clipPath id="SVGID_00000137123638360226141170000004942831359464362425_">
			<use xlink:href="#SVGID_1_"  style="overflow:visible;"/>
		</clipPath>
		
			<rect x="9.1" y="8.2" style="clip-path:url(#SVGID_00000137123638360226141170000004942831359464362425_);fill:#FF0000;" width="132" height="33.7"/>
		<path style="clip-path:url(#SVGID_00000137123638360226141170000004942831359464362425_);fill:#FFFFFF;" d="M9.1,37h7.1v-0.9H9.1
			V37z M9.1,31.3h7.1v-0.9H9.1V31.3z M9.1,25.4h7.1v-0.9H9.1V25.4z M9.1,19.6h7.1v-0.9H9.1V19.6z M9.1,13.9h7.1v-0.9H9.1V13.9z"/>
		<path style="clip-path:url(#SVGID_00000137123638360226141170000004942831359464362425_);fill:#FFFFFF;" d="M134.1,37h7v-0.9h-7
			V37z M134.1,31.3h7v-0.9h-7V31.3z M134.1,25.4h7v-0.9h-7V25.4z M134.1,19.6h7v-0.9h-7V19.6z M134.1,13.9h7v-0.9h-7V13.9z"/>
		<g style="clip-path:url(#SVGID_00000137123638360226141170000004942831359464362425_);">
			<defs>
				<rect id="SVGID_00000000211954421611283780000014124835216206436532_" x="9.1" y="8.2" width="132" height="33.7"/>
			</defs>
			<clipPath id="SVGID_00000044140516143670672520000017642187130043822239_">
				<use xlink:href="#SVGID_00000000211954421611283780000014124835216206436532_"  style="overflow:visible;"/>
			</clipPath>
			
				<path style="clip-path:url(#SVGID_00000044140516143670672520000017642187130043822239_);fill-rule:evenodd;clip-rule:evenodd;fill:#FFFFFF;" d="
				M126.5,37l5.1-24h-6.7l-5.1,24H126.5z M102.1,27.6l5.4-10h0.1l0.9,10H102.1z M96.9,37l2.6-4.7h9.8l0.6,4.7h7.5l-4.4-24h-8.1
				L90.2,37H96.9z M64.3,37h6l3.9-18.4h0.1L78.5,37h9.2l5.1-24h-6l-3.8,17.8L83,30.9L78.7,13h-9.3L64.3,37z M60.6,37l1-4.7H49.9
				l1.1-5.1h10.7l1-4.7H52l1.1-5h11.6l1-4.7H47.4l-5.1,24H60.6z M41.3,20c1.6-5.8-3.1-7.6-8-7.6c-5,0-10.4,1.6-11.8,7.3
				c-0.5,2.6,0.2,4.8,2.4,5.9c4.7,2.3,9.8,1.6,9.1,4.9c-0.3,1.6-2.5,2.4-4,2.4c-2.4,0-3.8-1.2-3.3-3.5H19c-1.3,6.5,3.3,8.2,8.9,8.2
				c5.6,0,11.1-2.4,12.1-7.5c1.4-6.5-4.4-6.9-8.2-7.9c-1.7-0.5-3.7-1-3.3-2.8c0.3-1.2,1.8-2.2,3.3-2.2c1.1,0,1.9,0.3,2.4,0.8
				c0.5,0.5,0.6,1.2,0.4,2.1H41.3z"/>
		</g>
	</g>
</g>
</svg>
