<svg xmlns="http://www.w3.org/2000/svg" viewBox="0 0 90.28 61.69"><defs><style>.cls-1{fill:#333;}.cls-2{fill:#e30613;}</style></defs><g id="Layer_2" data-name="Layer 2"><g id="Layer_4" data-name="Layer 4"><path class="cls-1" d="M85.77,0H4.51A4.51,4.51,0,0,0,0,4.51v30.1a4.51,4.51,0,0,0,4.51,4.51H85.77a4.51,4.51,0,0,0,4.51-4.51V4.51A4.51,4.51,0,0,0,85.77,0ZM10.53,36.11h-6A1.5,1.5,0,0,1,3,34.61V30.09h7.52Zm64.7,0H13.54v-6H75.23Zm12-1.5a1.5,1.5,0,0,1-1.5,1.5H78.24v-6h9Zm0-7.53H3V4.51A1.5,1.5,0,0,1,4.51,3H85.77a1.5,1.5,0,0,1,1.5,1.5Z"/><circle class="cls-2" cx="82.76" cy="33.1" r="1.5"/><path class="cls-2" d="M82.76,15.05H69.22a1.5,1.5,0,0,0-1.51,1.5v6a1.5,1.5,0,0,0,1.51,1.5H82.76a1.5,1.5,0,0,0,1.5-1.5v-6A1.5,1.5,0,0,0,82.76,15.05Zm-1.51,6H70.72v-3H81.25Z"/><path class="cls-1" d="M37.62,43.64a1.51,1.51,0,1,0-3,0,4.71,4.71,0,0,1-1.22,3.25,7.93,7.93,0,0,0,0,10,4.76,4.76,0,0,1,1.22,3.26,1.51,1.51,0,0,0,3,0,7.7,7.7,0,0,0-1.8-5,5,5,0,0,1,0-6.5A7.69,7.69,0,0,0,37.62,43.64Z"/><path class="cls-1" d="M45.14,43.64a1.51,1.51,0,1,0-3,0,4.71,4.71,0,0,1-1.22,3.25,7.93,7.93,0,0,0,0,10,4.76,4.76,0,0,1,1.22,3.26,1.51,1.51,0,0,0,3,0,7.7,7.7,0,0,0-1.79-5,4.94,4.94,0,0,1,0-6.5A7.69,7.69,0,0,0,45.14,43.64Z"/><path class="cls-1" d="M30.09,43.64a1.51,1.51,0,1,0-3,0,4.76,4.76,0,0,1-1.21,3.25,7.9,7.9,0,0,0,0,10,4.8,4.8,0,0,1,1.21,3.26,1.51,1.51,0,0,0,3,0,7.7,7.7,0,0,0-1.79-5,4.94,4.94,0,0,1,0-6.5A7.69,7.69,0,0,0,30.09,43.64Z"/><path class="cls-1" d="M60.19,43.64a1.51,1.51,0,1,0-3,0A4.71,4.71,0,0,1,56,46.89a7.93,7.93,0,0,0,0,10,4.76,4.76,0,0,1,1.22,3.26,1.51,1.51,0,0,0,3,0,7.7,7.7,0,0,0-1.8-5,5,5,0,0,1,0-6.5A7.69,7.69,0,0,0,60.19,43.64Z"/><path class="cls-1" d="M67.71,43.64a1.51,1.51,0,1,0-3,0,4.71,4.71,0,0,1-1.22,3.25,7.93,7.93,0,0,0,0,10,4.76,4.76,0,0,1,1.22,3.26,1.51,1.51,0,0,0,3,0,7.7,7.7,0,0,0-1.79-5,4.94,4.94,0,0,1,0-6.5A7.69,7.69,0,0,0,67.71,43.64Z"/><path class="cls-1" d="M52.66,43.64a1.51,1.51,0,1,0-3,0,4.76,4.76,0,0,1-1.21,3.25,7.9,7.9,0,0,0,0,10,4.8,4.8,0,0,1,1.21,3.26,1.51,1.51,0,0,0,3,0,7.7,7.7,0,0,0-1.79-5,4.94,4.94,0,0,1,0-6.5A7.69,7.69,0,0,0,52.66,43.64Z"/></g></g></svg>