<svg xmlns="http://www.w3.org/2000/svg" viewBox="0 0 83.37 83.37"><defs><style>.cls-1{fill:red;}.cls-2{fill:#333;}</style></defs><g id="Layer_2" data-name="Layer 2"><g id="Layer_4" data-name="Layer 4"><path class="cls-1" d="M16.14,30.93a5.38,5.38,0,1,0-5.38,5.38A5.38,5.38,0,0,0,16.14,30.93Zm-8.07,0a2.69,2.69,0,1,1,2.69,2.69A2.7,2.7,0,0,1,8.07,30.93Z"/><path class="cls-2" d="M41.69,45.72H79.34a4,4,0,0,0,4-4V4a4,4,0,0,0-4-4H41.69a4,4,0,0,0-4,4V23.34A7.95,7.95,0,0,0,29,25.55H20.06A10.75,10.75,0,1,0,6.26,40.69l1.68,16a4,4,0,0,0-2.88,3.28L2.87,75.3H2.69A2.7,2.7,0,0,0,0,78v2.69a2.69,2.69,0,0,0,2.69,2.69h26.9a2.68,2.68,0,0,0,2.68-2.69V78h43a8.07,8.07,0,0,0,0-16.13H27.49l-.28-1.92A4.05,4.05,0,0,0,24,56.55L19.8,36.74l.26-.43H29a7.95,7.95,0,0,0,8.68,2.21v3.17A4,4,0,0,0,41.69,45.72ZM40.34,32.27V29.58H59.17v2.69ZM53.79,2.69H67.24v8.07H53.79Zm-12.1,0H51.1V13.45H69.93V2.69h9.41A1.34,1.34,0,0,1,80.68,4V41.69A1.34,1.34,0,0,1,79.34,43H41.69a1.35,1.35,0,0,1-1.35-1.34V36.94a8.13,8.13,0,0,0,1.6-2H59.17a2.69,2.69,0,0,0,2.69-2.69V29.58a2.7,2.7,0,0,0-2.69-2.69H41.94a8.28,8.28,0,0,0-1.6-2V4A1.35,1.35,0,0,1,41.69,2.69Zm-39,28.24A8.07,8.07,0,1,1,10.76,39,8.08,8.08,0,0,1,2.69,30.93Zm8.07,10.76a10.71,10.71,0,0,0,6.82-2.45L21.2,56.48H10.62L9.05,41.54A10.76,10.76,0,0,0,10.76,41.69Zm18.83,39H2.69V78h26.9Zm4-10.75A5.38,5.38,0,1,1,39,75.3,5.38,5.38,0,0,1,33.62,69.93Zm28.24,0a5.38,5.38,0,1,1-5.38-5.38A5.38,5.38,0,0,1,61.86,69.93Zm.62-5.38h6.83a8,8,0,0,0,0,10.75H62.48a8,8,0,0,0,0-10.75Zm-12,10.75H45a8,8,0,0,0,0-10.75h5.48a8,8,0,0,0,0,10.75Zm30.2-5.37a5.38,5.38,0,1,1-5.37-5.38A5.38,5.38,0,0,1,80.68,69.93ZM33,64.55A8,8,0,0,0,33,75.3H29.41L27.87,64.55ZM26.69,75.3H5.59L6,72.61H22.86V69.93H6.36l1.37-9.61a1.34,1.34,0,0,1,1.33-1.15H23.22a1.35,1.35,0,0,1,1.33,1.15ZM21.16,33.62a10.23,10.23,0,0,0,0-5.38h6.21a8,8,0,0,0-.47,2.69,8,8,0,0,0,.47,2.69Zm8.43-2.69a5.37,5.37,0,0,1,9.34-3.62,2.68,2.68,0,0,0-1.28,2.27v2.69a2.69,2.69,0,0,0,1.28,2.28,5.37,5.37,0,0,1-9.34-3.62Z"/><path class="cls-1" d="M67.24,37.65H78v2.69H67.24Z"/><path class="cls-1" d="M67.24,32.27H78V35H67.24Z"/><path class="cls-1" d="M37.65,68.58h2.69v2.69H37.65Z"/><path class="cls-1" d="M55.13,68.58h2.69v2.69H55.13Z"/><path class="cls-1" d="M74,68.58h2.69v2.69H74Z"/></g></g></svg>