<svg xmlns="http://www.w3.org/2000/svg" viewBox="0 0 67.86 84.2"><defs><style>.cls-1{fill:#333;}.cls-2{fill:#e30613;}</style></defs><g id="Layer_2" data-name="Layer 2"><g id="Layer_4" data-name="Layer 4"><path class="cls-1" d="M67.84,68.37V10.08A1.23,1.23,0,0,0,66.6,8.85H37.68a1.24,1.24,0,0,0,0,2.47H65.37V67.39H21.21V11.32H32.66a1.24,1.24,0,0,0,0-2.47H21.09a10.61,10.61,0,0,0-21,.84,1.23,1.23,0,0,0-.06.39V47.34a1.24,1.24,0,1,0,2.47,0V10.39a.93.93,0,0,0,0-.24,8.14,8.14,0,0,1,16.27.46c0,.16,0,.34,0,.56V66.75a10.6,10.6,0,0,0-16.28.06V53.06a1.24,1.24,0,0,0-2.47,0v20.1a1.09,1.09,0,0,0,0,.26s0,.1,0,.16a10.63,10.63,0,0,0,10.35,10.6l.23,0h56A1.23,1.23,0,0,0,67.86,83V68.62A2.11,2.11,0,0,0,67.84,68.37Zm-57,13.36H10.6a8.14,8.14,0,1,1,6.94-12.45,1.23,1.23,0,0,0,1.05.59H65.4v6.89H10.63a3.17,3.17,0,1,1,3.17-3.17,1.23,1.23,0,0,0,1,1.21,1.25,1.25,0,0,0,.58.15H49.09a1.24,1.24,0,0,0,0-2.47H16.16a5.63,5.63,0,1,0-5.53,6.74H65.4v2.52Z"/><path class="cls-2" d="M43,14.3H26a1.23,1.23,0,0,0-1.23,1.24V38.05A1.23,1.23,0,0,0,26,39.28H43a1.23,1.23,0,0,0,1.23-1.23V15.54A1.23,1.23,0,0,0,43,14.3ZM41.73,36.82H27.19v-20H41.73Z"/><path class="cls-2" d="M24.72,62.93A1.23,1.23,0,0,0,26,64.16H60.6a1.24,1.24,0,0,0,1.24-1.23V55.65a1.25,1.25,0,0,0-1.24-1.24H26a1.24,1.24,0,0,0-1.23,1.24Zm2.47-6H59.37V61.7H27.19Z"/><path class="cls-1" d="M24.72,43.64A1.24,1.24,0,0,0,26,44.88H60.27a1.24,1.24,0,1,0,0-2.47H26A1.23,1.23,0,0,0,24.72,43.64Z"/><path class="cls-1" d="M26,51H60.27a1.24,1.24,0,1,0,0-2.47H26A1.24,1.24,0,0,0,26,51Z"/><path class="cls-1" d="M47.94,31.23H60.27a1.24,1.24,0,1,0,0-2.47H47.94a1.24,1.24,0,0,0,0,2.47Z"/><path class="cls-1" d="M47.94,37.31H60.27a1.24,1.24,0,1,0,0-2.47H47.94a1.24,1.24,0,0,0,0,2.47Z"/><path class="cls-1" d="M47.94,17.58H60.27a1.24,1.24,0,1,0,0-2.47H47.94a1.24,1.24,0,0,0,0,2.47Z"/><path class="cls-1" d="M47.94,23.66H60.27a1.24,1.24,0,1,0,0-2.47H47.94a1.24,1.24,0,0,0,0,2.47Z"/></g></g></svg>