<svg xmlns="http://www.w3.org/2000/svg" viewBox="0 0 80.75 80.75"><defs><style>.cls-1{fill:#e30613;}.cls-2{fill:#333;}</style></defs><g id="Layer_2" data-name="Layer 2"><g id="Layer_4" data-name="Layer 4"><path class="cls-1" d="M9.42,70A9.44,9.44,0,0,0,0,79.4a1.34,1.34,0,0,0,1.35,1.35H17.5a1.34,1.34,0,0,0,1.34-1.35A9.44,9.44,0,0,0,9.42,70ZM2.83,78.06a6.72,6.72,0,0,1,5.24-5.24v2.54h2.7V72.82A6.72,6.72,0,0,1,16,78.06Z"/><path class="cls-2" d="M79.4,57.87H77c-.07-.19-.15-.37-.23-.56l1.67-1.67a1.35,1.35,0,0,0,0-1.9L72.77,48a1.31,1.31,0,0,0-1-.38,6.73,6.73,0,0,0,3.6-5.93v-35A6.73,6.73,0,0,0,68.64,0H6.73A6.74,6.74,0,0,0,0,6.73v35a6.74,6.74,0,0,0,6.73,6.73H24.29l-5.08,9.42H16.82a4.71,4.71,0,1,0,0,9.42H45.76a1.35,1.35,0,0,0,1.34,1.35h2.36c.08.18.15.37.24.56L48,70.87a1.33,1.33,0,0,0,0,1.9l5.71,5.71a1.35,1.35,0,0,0,1.9,0l1.67-1.67.56.23V79.4a1.34,1.34,0,0,0,1.34,1.35h8.08a1.35,1.35,0,0,0,1.35-1.35V77l.56-.23,1.67,1.67a1.35,1.35,0,0,0,1.9,0l5.71-5.71a1.35,1.35,0,0,0,0-1.9L76.81,69.2l.23-.56H79.4a1.35,1.35,0,0,0,1.35-1.35V59.21A1.34,1.34,0,0,0,79.4,57.87ZM2.69,6.73a4,4,0,0,1,4-4H68.64a4,4,0,0,1,4,4V35h-70Zm4,39a4,4,0,0,1-4-4v-4h70v4a4,4,0,0,1-4,4H6.73ZM70.85,48,69.2,49.7l-.56-.24v-1A6.56,6.56,0,0,0,70.85,48Zm-13,.41v1l-.56.24-1.25-1.25Zm-4.56,0-1.16,1.16-.79-1.16ZM45.76,64.6H16.82a2,2,0,0,1,0-4H45.76ZM22.27,57.87l5.08-9.42H48.11l2.11,3.1L48,53.73a1.35,1.35,0,0,0,0,1.91l1.67,1.67c-.09.18-.16.37-.24.56H22.27Zm55.79,8.07h-2a1.34,1.34,0,0,0-1.28.94,12.66,12.66,0,0,1-.82,2,1.33,1.33,0,0,0,.24,1.57l1.39,1.4-3.8,3.8-1.4-1.39A1.33,1.33,0,0,0,68.85,74a12.57,12.57,0,0,1-2,.82,1.34,1.34,0,0,0-1,1.28v2H60.56v-2a1.34,1.34,0,0,0-.94-1.28,12.57,12.57,0,0,1-2-.82,1.35,1.35,0,0,0-1.58.24l-1.39,1.39-3.81-3.8,1.4-1.4a1.35,1.35,0,0,0,.24-1.57,11.67,11.67,0,0,1-.82-2,1.35,1.35,0,0,0-1.29-1h-2V60.56h2a1.35,1.35,0,0,0,1.29-.94,11.67,11.67,0,0,1,.82-2,1.35,1.35,0,0,0-.25-1.58l-1.39-1.39,3.81-3.81,1.39,1.4a1.37,1.37,0,0,0,1.58.24,11.67,11.67,0,0,1,2-.82,1.35,1.35,0,0,0,.94-1.29v-2h5.38v2a1.35,1.35,0,0,0,.94,1.29,11.76,11.76,0,0,1,2,.82,1.34,1.34,0,0,0,1.57-.25l1.4-1.39,3.8,3.81-1.39,1.39A1.33,1.33,0,0,0,74,57.66a12.57,12.57,0,0,1,.82,2,1.34,1.34,0,0,0,1.28.94h2Z"/><path class="cls-2" d="M63.25,55.18a8.08,8.08,0,1,0,8.08,8.07A8.08,8.08,0,0,0,63.25,55.18Zm0,13.46a5.39,5.39,0,1,1,5.39-5.39A5.39,5.39,0,0,1,63.25,68.64Z"/><path class="cls-1" d="M26.52,10.37l-1.9-1.9L15.2,17.89a1.33,1.33,0,0,0,0,1.9l9.42,9.42,1.9-1.9-8.47-8.47Z"/><path class="cls-1" d="M56.13,17.89,46.71,8.47l-1.9,1.9,8.46,8.47-8.46,8.47,1.9,1.9,9.42-9.42A1.33,1.33,0,0,0,56.13,17.89Z"/><rect class="cls-1" x="22.12" y="16.15" width="27.08" height="2.69" transform="translate(4.06 41.57) rotate(-63.43)"/><rect class="cls-2" x="52.49" y="26.92" width="2.69" height="2.69"/><rect class="cls-2" x="57.87" y="26.92" width="2.69" height="2.69"/><rect class="cls-2" x="63.25" y="26.92" width="2.69" height="2.69"/></g></g></svg>