<?xml version="1.0" encoding="utf-8"?>
<!-- Generator: Adobe Illustrator 23.1.0, SVG Export Plug-In . SVG Version: 6.00 Build 0)  -->
<svg version="1.1" id="Camada_1" xmlns="http://www.w3.org/2000/svg" xmlns:xlink="http://www.w3.org/1999/xlink" x="0px" y="0px"
	 viewBox="0 0 80 80" style="enable-background:new 0 0 80 80;" xml:space="preserve">
<style type="text/css">
	.st0{fill:#FFFFFF;}
</style>
<g>
	<path class="st0" d="M55.5,46c-0.5-0.5-1.4-0.5-1.9,0l-1,1l-2.1-2.1c9.3-12.4,6.8-30-5.7-39.3s-30-6.8-39.3,5.7s-6.8,30,5.7,39.3
		c10,7.5,23.7,7.5,33.7,0l2.1,2.1l-1,0.9c-0.5,0.5-0.5,1.4,0,1.9l22.6,22.6c2.6,2.6,6.8,2.6,9.4,0s2.6-6.8,0-9.4L55.5,46z M2.9,28.2
		c0-14,11.3-25.3,25.3-25.3s25.3,11.3,25.3,25.3S42.2,53.5,28.2,53.5S2.9,42.2,2.9,28.2z M48.9,47l1.9,1.9l-1.9,1.9L47,48.9
		C47.6,48.3,48.3,47.6,48.9,47z M76.2,76.2c-1.6,1.5-4.1,1.5-5.7,0L48.9,54.5l5.7-5.7l21.7,21.7C77.7,72.1,77.7,74.6,76.2,76.2
		L76.2,76.2z"/>
	<g>
		<path class="st0" d="M28.2,7.5c-7.9,0-14.4,6.5-14.4,14.4c0,10.1,12.6,25.9,13.2,26.6c0.6,0.7,1.6,0.8,2.3,0.2
			c0.1-0.1,0.1-0.1,0.2-0.2c0.5-0.7,13.2-16.5,13.2-26.6C42.6,13.8,36.1,7.5,28.2,7.5z M28.2,44.7C25.1,40.5,17,29,17,21.8
			c0-6.2,5-11.1,11.1-11.1s11.1,5,11.1,11.1C39.3,29,31.3,40.5,28.2,44.7z"/>
		<path class="st0" d="M28.2,13.8c-4.4,0-8,3.6-8,8s3.6,8,8,8s8-3.6,8-8S32.6,13.8,28.2,13.8z M28.2,26.6c-2.6,0-4.8-2.2-4.8-4.8
			s2.2-4.8,4.8-4.8s4.8,2.2,4.8,4.8S30.8,26.6,28.2,26.6z"/>
	</g>
</g>
</svg>
